#!OML:ASF H:\GeneralSubjects\Female5\Project 1\Capture day 1\Session 1\Female5.ASF
:FULLY-SPECIFIED
:DEGREES
223
root -1.96964 11.1066 -0.382605 51.7127 -83.5236 -33.3613
lowerback 21.2158 0.194048 -3.05455
upperback -7.88638 -0.193917 2.72961
thorax -21.0363 0.578236 4.95842
lowerneck -17.199 1.58133 -2.97456
upperneck 26.3504 7.21523 -17.2371
head 12.3385 0.373965 -5.0216
rclavicle -3.40419e-015 2.39908e-014
rhumerus -40.2532 -3.61119 0.611577
rradius 15.0927
rwrist -11.2423
rhand -47.5383 -66.4105
rfingers 7.12502
rthumb -20.2247 95.3776
lclavicle -3.40419e-015 2.39908e-014
lhumerus -30.4536 36.2423 6.32769
lradius 29.4584
lwrist 0.740261
lhand -48.3034 73.727
lfingers 7.12502
lthumb -20.9599 257.385
rfemur -79.8349 19.7015 36.9593
rtibia 86.5086
rfoot -28.1089 -10.9461
rtoes -6.30443
lfemur 2.17802 -12.1016 -29.3591
ltibia 64.8451
lfoot -0.139485 -26.6946
ltoes -66.8205
224
root -1.97339 11.2337 -0.376968 53.6868 -83.2661 -34.963
lowerback 20.9513 0.18902 -3.28359
upperback -7.97954 -0.273398 2.70066
thorax -20.9877 0.57243 5.0862
lowerneck -16.9419 1.45645 -3.18363
upperneck 25.9528 6.87296 -16.6535
head 12.0469 0.327064 -4.76901
rclavicle -1.08338e-014 5.96354e-016
rhumerus -40.3256 -4.12116 -0.279671
rradius 14.9718
rwrist -10.6398
rhand -47.973 -66.5254
rfingers 7.12502
rthumb -20.6425 95.4477
lclavicle -1.08338e-014 5.96354e-016
lhumerus -30.4718 36.9952 7.06858
lradius 29.4584
lwrist -0.377179
lhand -48.1116 73.3425
lfingers 7.12502
lthumb -20.7756 257.75
rfemur -78.9265 19.5847 37.1172
rtibia 84.737
rfoot -28.0676 -11.0255
rtoes -5.06483
lfemur 2.25927 -12.7049 -29.2965
ltibia 63.5456
lfoot -0.555224 -26.1968
ltoes -66.6507
225
root -1.97478 11.3692 -0.367291 55.5025 -82.9856 -36.2582
lowerback 20.5509 0.147305 -3.49217
upperback -8.14528 -0.390206 2.70242
thorax -20.9456 0.551461 5.25275
lowerneck -15.9952 1.22555 -3.88235
upperneck 24.8921 6.24885 -15.6791
head 11.3092 0.233679 -4.27929
rclavicle 5.04416e-015 -4.52235e-014
rhumerus -40.3909 -4.06721 -1.8102
rradius 15.0183
rwrist -10.8692
rhand -48.1973 -66.2375
rfingers 7.12502
rthumb -20.858 95.1363
lclavicle 5.04416e-015 -4.52235e-014
lhumerus -30.5811 37.7681 7.95625
lradius 29.2831
lwrist -1.61697
lhand -47.9561 73.2142
lfingers 7.12502
lthumb -20.6262 257.862
rfemur -78.2048 19.4118 37.2327
rtibia 82.9726
rfoot -28.0244 -11.2999
rtoes -5.09888
lfemur 2.29568 -13.4453 -29.2586
ltibia 61.9557
lfoot -1.26121 -25.5579
ltoes -66.6787
226
root -1.97533 11.5114 -0.35405 57.3516 -82.6255 -37.4512
lowerback 20.0388 0.0963744 -3.46054
upperback -8.37972 -0.462199 2.62542
thorax -20.9274 0.509427 5.17375
lowerneck -17.1881 1.46863 -2.46377
upperneck 25.6754 6.64102 -16.3906
head 11.9594 0.358967 -4.80494
rclavicle -2.5345e-015 3.24019e-014
rhumerus -40.6608 -4.81895 -3.04936
rradius 15.0937
rwrist -10.5071
rhand -48.2385 -66.1184
rfingers 7.12502
rthumb -20.8976 95.0128
lclavicle -2.5345e-015 3.24019e-014
lhumerus -30.5711 38.35 9.11985
lradius 29.1076
lwrist -2.53425
lhand -48.1559 73.3859
lfingers 7.12502
lthumb -20.8182 257.711
rfemur -77.6177 19.2644 37.2877
rtibia 81.1744
rfoot -28.0163 -11.8188
rtoes -6.88226
lfemur 2.18458 -14.3497 -29.1614
ltibia 60.3456
lfoot -0.6664 -24.9663
ltoes -65.7552
227
root -1.98233 11.6632 -0.33617 58.6454 -82.3556 -38.1423
lowerback 19.5664 0.0712272 -3.47599
upperback -8.59753 -0.520748 2.50847
thorax -20.9114 0.475268 5.06982
lowerneck -15.6023 0.792515 -4.01167
upperneck 23.8427 5.20174 -14.2802
head 10.6783 0.0437291 -3.80844
rclavicle -2.28602e-015 -2.38542e-014
rhumerus -40.8548 -6.10814 -4.14392
rradius 15.0503
rwrist -9.92509
rhand -48.313 -66.1509
rfingers 7.12502
rthumb -20.9691 95.0374
lclavicle -2.28602e-015 -2.38542e-014
lhumerus -30.5758 39.0651 10.4848
lradius 28.8749
lwrist -3.33269
lhand -48.1929 73.3368
lfingers 7.12502
lthumb -20.8537 257.764
rfemur -76.8546 19.1723 37.1385
rtibia 79.2416
rfoot -28.2015 -11.6481
rtoes -4.65665
lfemur 2.12975 -15.1759 -29.189
ltibia 58.7722
lfoot -0.551291 -24.3295
ltoes -65.0954
228
root -1.99809 11.8264 -0.31104 59.6969 -82.107 -38.69
lowerback 19.1572 0.0313113 -3.53617
upperback -8.79845 -0.599048 2.47354
thorax -20.9098 0.447081 5.09404
lowerneck -16.2163 1.53331 -0.442362
upperneck 23.4283 6.07329 -17.4056
head 10.9219 0.398299 -5.47749
rclavicle -2.2413e-014 -5.1684e-015
rhumerus -40.7958 -6.99182 -5.65574
rradius 14.8945
rwrist -9.96549
rhand -48.6116 -66.2005
rfingers 7.12502
rthumb -21.256 95.0549
lclavicle -2.2413e-014 -5.1684e-015
lhumerus -30.823 39.694 12.0491
lradius 28.6187
lwrist -3.7881
lhand -48.2617 72.8126
lfingers 7.12502
lthumb -20.9199 258.295
rfemur -75.8284 19.0426 36.9681
rtibia 77.1357
rfoot -28.4165 -12.175
rtoes -3.67992
lfemur 2.3502 -15.9677 -29.3087
ltibia 56.9286
lfoot -0.790288 -23.6447
ltoes -64.6032
229
root -2.01727 11.9989 -0.277827 60.9258 -81.8075 -39.4359
lowerback 18.7402 -0.0593803 -3.54038
upperback -9.01885 -0.710244 2.56549
thorax -20.9246 0.409706 5.24562
lowerneck -18.1689 1.49907 -0.636349
upperneck 24.7459 6.22057 -16.5231
head 11.792 0.395198 -5.18642
rclavicle 9.14409e-015 -2.54444e-014
rhumerus -40.5612 -7.37708 -7.62997
rradius 14.9486
rwrist -10.8112
rhand -49.1072 -66.6479
rfingers 7.12502
rthumb -21.732 95.448
lclavicle 9.14409e-015 -2.54444e-014
lhumerus -31.4837 40.2919 13.6551
lradius 28.3748
lwrist -4.14907
lhand -48.3959 72.5898
lfingers 7.12502
lthumb -21.0488 258.533
rfemur -74.6414 18.9164 36.8489
rtibia 74.8405
rfoot -28.3915 -12.7264
rtoes -3.67661
lfemur 2.76833 -16.7378 -29.391
ltibia 54.7682
lfoot -0.819427 -22.7231
ltoes -63.8936
230
root -2.0432 12.178 -0.23751 62.2482 -81.4805 -40.2584
lowerback 18.1807 -0.169402 -3.42432
upperback -9.2372 -0.806779 2.69156
thorax -20.8474 0.360052 5.35739
lowerneck -18.2677 1.22954 -1.49661
upperneck 24.4367 5.64168 -14.7513
head 11.5257 0.311567 -4.40899
rclavicle -1.77912e-014 3.73715e-014
rhumerus -40.3414 -8.01253 -9.58839
rradius 15.2343
rwrist -11.7029
rhand -49.3165 -67.0565
rfingers 7.12502
rthumb -21.9329 95.8332
lclavicle -1.77912e-014 3.73715e-014
lhumerus -32.2817 41.101 15.3251
lradius 28.0559
lwrist -4.83635
lhand -48.3235 72.7439
lfingers 7.12502
lthumb -20.9793 258.371
rfemur -73.3963 18.8291 36.7205
rtibia 72.4498
rfoot -28.2257 -13.1496
rtoes -3.72137
lfemur 3.33786 -17.4227 -29.4266
ltibia 52.2876
lfoot -0.398945 -21.3794
ltoes -62.76
231
root -2.07031 12.3681 -0.193729 63.9805 -81.1689 -41.3631
lowerback 17.4741 -0.226399 -3.15532
upperback -9.46834 -0.797894 2.76637
thorax -20.7047 0.324798 5.2799
lowerneck -16.3468 0.358885 -4.73627
upperneck 21.8293 4.05223 -11.3172
head 9.89478 -0.0256789 -2.67987
rclavicle -2.00276e-014 -1.23246e-014
rhumerus -40.1916 -9.39907 -11.2412
rradius 15.3242
rwrist -11.9639
rhand -49.2387 -67.0268
rfingers 7.12502
rthumb -21.8582 95.8123
lclavicle -2.00276e-014 -1.23246e-014
lhumerus -33.1491 43.2482 16.6823
lradius 27.4105
lwrist -6.98662
lhand -48.2859 72.3659
lfingers 7.12502
lthumb -20.9431 258.745
rfemur -72.3703 18.8028 36.5318
rtibia 70.1607
rfoot -28.0096 -13.4743
rtoes -3.93772
lfemur 3.70121 -18.0668 -29.364
ltibia 49.7435
lfoot 0.164161 -19.7841
ltoes -61.6023
232
root -2.09514 12.5715 -0.145807 65.8404 -80.9498 -42.5297
lowerback 16.7893 -0.243171 -2.88808
upperback -9.75763 -0.744404 2.82736
thorax -20.6544 0.310726 5.17637
lowerneck -17.1813 0.431009 -4.50666
upperneck 21.9782 4.09821 -10.7857
head 10.092 0.0559338 -2.52984
rclavicle 8.74653e-015 -2.54444e-014
rhumerus -39.9488 -11.1076 -12.7771
rradius 15.2268
rwrist -11.9762
rhand -49.0845 -66.6621
rfingers 7.12502
rthumb -21.7101 95.4647
lclavicle 8.74653e-015 -2.54444e-014
lhumerus -33.4719 42.6264 19.3414
lradius 27.2448
lwrist -6.17756
lhand -48.3144 72.7788
lfingers 7.12502
lthumb -20.9705 258.335
rfemur -71.4841 18.783 36.2212
rtibia 67.9567
rfoot -27.8153 -13.7518
rtoes -4.1336
lfemur 3.76372 -18.5721 -29.2606
ltibia 47.343
lfoot 0.765678 -18.1351
ltoes -60.7707
